<?xml version="1.0" encoding="utf-8"?>
<!-- Generator: Adobe Illustrator 16.2.0, SVG Export Plug-In . SVG Version: 6.00 Build 0)  -->
<!DOCTYPE svg PUBLIC "-//W3C//DTD SVG 1.1//EN" "http://www.w3.org/Graphics/SVG/1.1/DTD/svg11.dtd">
<svg version="1.1" xmlns="http://www.w3.org/2000/svg" xmlns:xlink="http://www.w3.org/1999/xlink" x="0px" y="0px"
	 width="226.771px" height="224.504px" viewBox="0 0 226.771 224.504" enable-background="new 0 0 226.771 224.504"
	 xml:space="preserve">
<g id="Слой_1">
	<path fill="#5C6670" d="M13.016,223.926v-58.652H0v58.652H13.016L13.016,223.926z M35.175,223.926H48.19v-47.119H35.175v32.704
		c0.014,0.699-0.042,1.373-0.179,2.031c-0.124,0.646-0.397,1.181-0.796,1.594c-0.398,0.425-1.016,0.645-1.826,0.658
		c-0.81-0.014-1.4-0.233-1.785-0.658c-0.371-0.413-0.618-0.948-0.714-1.594c-0.11-0.658-0.151-1.332-0.137-2.031v-32.704H16.723
		v36.905c0,2.265,0.33,4.188,0.988,5.794c0.659,1.605,1.634,2.842,2.938,3.692c1.305,0.865,2.938,1.291,4.888,1.305
		c2.554-0.014,4.613-0.563,6.192-1.675c1.565-1.1,2.664-2.677,3.281-4.751h0.165V223.926L35.175,223.926z M70.268,193.446h13.016
		v-3.954c-0.014-2.525-0.453-4.641-1.291-6.343c-0.837-1.717-2.004-3.076-3.459-4.092c-1.47-1.016-3.158-1.743-5.053-2.183
		c-1.895-0.439-3.899-0.659-6.014-0.646c-3.309,0.014-6.123,0.59-8.458,1.688c-2.32,1.112-4.105,2.664-5.327,4.627
		c-1.235,1.978-1.854,4.257-1.867,6.865v21.995c0.013,3.021,0.645,5.491,1.894,7.428c1.25,1.936,3.048,3.363,5.382,4.283
		c2.334,0.934,5.121,1.387,8.375,1.387c2.32,0,4.435-0.219,6.371-0.673c1.922-0.438,3.583-1.153,4.998-2.128
		c1.414-0.975,2.499-2.238,3.281-3.803c0.769-1.566,1.153-3.447,1.167-5.671v-6.92H70.268v7.332c0,0.591-0.083,1.126-0.248,1.62
		c-0.165,0.494-0.453,0.906-0.851,1.208s-0.934,0.453-1.62,0.467c-0.687-0.014-1.222-0.165-1.621-0.467
		c-0.397-0.302-0.686-0.714-0.851-1.208c-0.165-0.494-0.247-1.029-0.247-1.62v-24.549c0-0.591,0.083-1.125,0.247-1.619
		c0.165-0.509,0.454-0.907,0.851-1.209c0.398-0.302,0.934-0.467,1.621-0.467c0.686,0,1.222,0.165,1.62,0.467s0.686,0.7,0.851,1.209
		c0.165,0.494,0.248,1.028,0.248,1.619V193.446L70.268,193.446z M99.924,223.926v-24.63h0.165l6.672,24.63h13.263l-8.156-26.03
		l7.497-21.089h-12.604l-6.672,21.5h-0.165v-33.033H86.909v58.652H99.924z"/>
</g>
<g id="Слой_2">
	<path fill-rule="evenodd" clip-rule="evenodd" fill="#EF7622" d="M92.43,84.043h11.033c-5.05-6.121-8.084-13.969-8.084-22.521
		c0-9.776,3.965-18.629,10.375-25.039c6.409-6.41,15.263-10.375,25.041-10.375c3.614,0,7.104,0.543,10.39,1.551
		c-0.32-0.593-0.67-1.176-1.063-1.738c-10.174-14.563-22.979-13.746-39.114-15.359c-9.975,0.244-19.791,2.585-26.734,7.024
		c-6.991,4.471-12.036,11.485-14.931,21.454c-2.933,10.094-5.299,20.056-7.066,29.655c-1.768,9.595-2.933,18.83-3.465,27.472
		c-0.415,6.758,0.732,13.417,2.91,19.407c2.373,6.525,5.941,12.213,10.023,16.334c4.733,4.779,10.337,8.26,16.956,10.524
		c13.676,4.68,34.421,4.679,48.095,0c6.618-2.265,12.222-5.745,16.956-10.524c4.081-4.121,7.65-9.809,10.022-16.334
		c2.178-5.99,3.325-12.649,2.909-19.407c-0.192-3.135-0.469-6.349-0.826-9.629l-0.023,0.023
		c-6.409,6.409-15.264,10.373-25.039,10.373c-5.261,0-10.254-1.147-14.741-3.206c-2.074,5.434-5.561,9.466-9.696,10.927v6.678
		c0,3.767,1.505,6.992,3.935,9.287c2.568,2.425,6.183,3.855,10.192,3.855h0.001c4.011,0,7.624-1.431,10.192-3.855
		c2.431-2.295,3.934-5.521,3.934-9.287c0-1.903,1.544-3.445,3.447-3.445s3.445,1.542,3.445,3.445c0,5.759-2.338,10.729-6.117,14.294
		c-3.82,3.609-9.108,5.739-14.901,5.739h-0.001c-5.793,0-11.08-2.13-14.902-5.739c-0.995-0.94-1.89-1.978-2.669-3.101
		c-0.78,1.123-1.675,2.16-2.67,3.101c-3.823,3.609-9.109,5.739-14.903,5.739l0,0c-5.794,0-11.08-2.13-14.904-5.739
		c-3.777-3.565-6.115-8.535-6.115-14.294c0-1.903,1.543-3.445,3.446-3.445c1.902,0,3.444,1.542,3.444,3.445
		c0,3.767,1.505,6.992,3.936,9.287c2.568,2.425,6.181,3.855,10.192,3.855l0,0c4.011,0,7.625-1.431,10.193-3.855
		c2.43-2.295,3.934-5.521,3.934-9.287v-6.678c-5.323-1.88-9.573-8.018-11.112-15.923v-0.615
		C88.354,85.877,90.188,84.043,92.43,84.043L92.43,84.043z M123.717,185.373v38.553h13.016v-38.553h3.708v-8.566h-3.708
		c-0.013-0.632,0.069-1.167,0.248-1.607c0.178-0.452,0.535-0.782,1.07-1.015c0.536-0.234,1.332-0.344,2.39-0.344v-8.567h-8.32
		c-1.497,0.015-2.787,0.289-3.845,0.811c-1.071,0.534-1.936,1.222-2.608,2.072c-0.672,0.853-1.167,1.758-1.482,2.747
		c-0.316,0.974-0.468,1.936-0.468,2.855v3.048h-2.883v8.566H123.717L123.717,185.373z M156.505,223.926v-47.119h-13.017v47.119
		H156.505L156.505,223.926z M156.505,173.594v-8.32h-13.017v8.32H156.505L156.505,173.594z M173.227,176.807h-13.016v47.119h13.016
		v-32.703c-0.015-0.7,0.041-1.373,0.179-2.032c0.122-0.646,0.397-1.181,0.796-1.606c0.412-0.411,1.016-0.631,1.826-0.646
		c0.81,0.015,1.4,0.234,1.784,0.646c0.371,0.426,0.619,0.961,0.715,1.606c0.109,0.659,0.15,1.332,0.137,2.032v32.703h13.017v-36.904
		c0-2.266-0.33-4.188-0.989-5.808c-0.659-1.607-1.634-2.828-2.938-3.693c-1.304-0.852-2.938-1.277-4.887-1.291
		c-2.555,0.014-4.614,0.563-6.193,1.662c-1.564,1.111-2.663,2.69-3.28,4.764h-0.165V176.807L173.227,176.807z M208.319,190.151
		c0.014-1.03,0.273-1.825,0.769-2.375c0.508-0.549,1.153-0.838,1.95-0.838c0.795,0,1.441,0.289,1.949,0.838
		c0.494,0.55,0.756,1.345,0.77,2.375v20.429c-0.014,1.031-0.275,1.827-0.77,2.376c-0.508,0.55-1.154,0.838-1.949,0.838
		c-0.797,0-1.442-0.288-1.95-0.838c-0.495-0.549-0.755-1.345-0.769-2.376V190.151L208.319,190.151z M213.757,223.926h13.015v-58.652
		h-13.015v17.959h-0.165c-0.385-1.442-1.003-2.678-1.84-3.721c-0.838-1.044-1.881-1.854-3.131-2.417
		c-1.235-0.577-2.663-0.865-4.256-0.865c-2.183,0.014-3.94,0.48-5.272,1.373c-1.332,0.906-2.307,2.143-2.896,3.708
		c-0.604,1.564-0.906,3.362-0.893,5.382v26.03c0,1.442,0.138,2.855,0.453,4.242c0.302,1.388,0.81,2.65,1.51,3.776
		c0.715,1.14,1.662,2.045,2.87,2.718c1.194,0.673,2.69,1.03,4.476,1.044c1.606,0,3.034-0.206,4.311-0.645
		c1.264-0.44,2.308-1.127,3.117-2.087c0.796-0.962,1.317-2.225,1.552-3.776h0.165V223.926L213.757,223.926z M132.299,45.849
		c6.559,1.021,7.903,5.577,6.633,9.924c-2.952,10.093-7.344-5.643-23.498,0.602C116.704,52.026,125.738,44.829,132.299,45.849
		L132.299,45.849z M190.502,103.162c1.661,1.597,3.603,2.536,4.243,3.975c0.677,1.523,0.274,3.239-0.846,4.441
		c-1.121,1.202-2.827,1.7-4.68,1.485c-1.819-0.211-3.735-1.189-5.396-2.738c-1.662-1.548-2.771-3.396-3.11-5.194
		c-0.345-1.83,0.034-3.566,1.154-4.77c1.121-1.202,2.799-1.715,4.379-1.166C187.742,99.716,188.841,101.564,190.502,103.162
		L190.502,103.162z M211.81,79.679c-5.475-3.294-11.281-4.978-16.358-4.553c-5.213,0.437-9.563,2.74-11.887,6.602
		c-2.464,3.777-2.82,8.519,0.13,11.833c1.664,1.872,4.383,3.263,7.626,4.501c0.041,2.81,1.91,5.86,5.061,7.756
		c3.021,1.818,6.429,2.098,8.91,0.99c2.408,2.203,4.716,3.909,7,4.529c4.321,1.175,8.485-1.404,10.742-5.424
		c2.375-3.948,2.43-8.964,0.413-13.846C221.485,87.322,217.283,82.974,211.81,79.679L211.81,79.679z M164.69,73.147l14.655,9.654
		c-1.708,4.332-1.38,9.239,1.905,12.933c0.201,0.226,0.411,0.445,0.629,0.655c-0.891,0.412-1.708,0.999-2.403,1.743
		c-0.229,0.248-0.441,0.506-0.634,0.775l-11.947-7.869c0.127,1.52,0.237,3.024,0.328,4.51c0.507,8.246-0.885,16.349-3.529,23.625
		c-2.9,7.977-7.339,15.006-12.462,20.177c-5.898,5.957-12.857,10.284-21.048,13.088c-16.386,5.607-38.489,5.607-54.875,0
		c-8.19-2.804-15.149-7.131-21.048-13.088c-5.123-5.171-9.563-12.2-12.462-20.177c-2.645-7.275-4.036-15.378-3.529-23.625
		c0.555-9.025,1.774-18.691,3.628-28.753c1.828-9.923,4.277-20.231,7.314-30.689c3.649-12.563,10.207-21.53,19.396-27.406
		c18.139-11.599,50.138-11.599,68.276,0c9.19,5.876,15.748,14.844,19.397,27.406l0.345,1.199c5.94,6.333,9.58,14.851,9.58,24.217
		c0,3.746-0.582,7.354-1.659,10.744L164.69,73.147L164.69,73.147z M215.563,114.827l-3.797,5.766l-13.949-9.188
		c0.162-0.404,0.287-0.821,0.375-1.245c2.055,0.605,4.243,0.765,6.322,0.32c2.051,1.729,4.376,3.321,6.922,4.014
		C212.838,114.874,214.225,114.97,215.563,114.827L215.563,114.827z M146.944,45.371c4.133,4.133,6.689,9.845,6.689,16.151
		c0,6.308-2.557,12.018-6.689,16.152c-4.134,4.134-9.845,6.691-16.15,6.691c-6.308,0-12.02-2.558-16.152-6.691
		s-6.689-9.844-6.689-16.152c0-6.306,2.557-12.018,6.689-16.151c4.133-4.133,9.845-6.69,16.152-6.69
		C137.1,38.681,142.811,41.237,146.944,45.371L146.944,45.371z M44.813,143.967c6.39,0,12.231,1.56,16.359,4.614
		c4.246,3.143,6.785,7.469,6.785,12.076c0.14,4.606-2.098,8.964-6.406,10.187c-2.278,0.646-5.134,0.373-8.334-0.272
		c-1.554,2.229-4.62,3.746-8.145,3.746c-3.675,0-6.85-1.648-8.335-4.034c-3.417,0.61-6.464,0.82-8.854,0.076
		c-4.237-1.32-6.376-5.566-6.213-10.073c0-4.507,2.54-8.724,6.78-11.786C32.581,145.519,38.424,143.967,44.813,143.967
		L44.813,143.967z M155.961,2.49c13.192,0.002,27.965,7.129,35.646,23.843c7.681,16.714-1.679,27.795-12.583,33.824
		c-6.148,3.397-11.126-0.013-12.735-8.604c-1.213-6.475-8.014-31.387-18.959-41.235c-1.171-1.053-2.233-1.754-2.965-2.549
		C140.328,3.376,144.418,2.489,155.961,2.49L155.961,2.49z M49.662,2.49C61.206,2.489,65.294,3.376,61.258,7.77
		c-0.731,0.795-1.794,1.496-2.964,2.549c-10.945,9.849-17.746,34.76-18.958,41.235c-1.61,8.59-6.588,12.001-12.736,8.604
		c-10.904-6.029-20.264-17.11-12.583-33.824C21.696,9.619,36.471,2.493,49.662,2.49L49.662,2.49z M124.824,114.182
		c1.72,0,3.115,1.396,3.115,3.116s-1.396,3.115-3.115,3.115c-1.721,0-3.116-1.395-3.116-3.115S123.104,114.182,124.824,114.182
		L124.824,114.182z M114.646,110.235c1.721,0,3.116,1.395,3.116,3.116s-1.396,3.115-3.116,3.115c-1.72,0-3.116-1.395-3.116-3.115
		S112.926,110.235,114.646,110.235L114.646,110.235z M123.681,105.561c1.722,0,3.115,1.396,3.115,3.116
		c0,1.72-1.394,3.115-3.115,3.115c-1.721,0-3.114-1.395-3.114-3.115C120.566,106.957,121.96,105.561,123.681,105.561
		L123.681,105.561z M81.1,114.182c1.721,0,3.115,1.396,3.115,3.116s-1.395,3.115-3.115,3.115c-1.721,0-3.116-1.395-3.116-3.115
		S79.378,114.182,81.1,114.182L81.1,114.182z M91.277,110.235c1.721,0,3.115,1.395,3.115,3.116s-1.395,3.115-3.115,3.115
		c-1.72,0-3.116-1.395-3.116-3.115S89.557,110.235,91.277,110.235L91.277,110.235z M82.242,105.561c1.72,0,3.117,1.396,3.117,3.116
		c0,1.72-1.397,3.115-3.117,3.115c-1.72,0-3.116-1.395-3.116-3.115C79.125,106.957,80.521,105.561,82.242,105.561L82.242,105.561z
		 M81.842,44.601c5.056,0,9.156,4.1,9.156,9.156c0,5.056-4.1,9.156-9.156,9.156c-5.056,0-9.157-4.1-9.157-9.156
		C72.685,48.7,76.786,44.601,81.842,44.601z"/>
</g>
</svg>
